<svg width="33" height="32" viewBox="0 0 33 32" fill="none" xmlns="http://www.w3.org/2000/svg">
    <g clip-path="url(#clip0_1172_6251)">
        <path
            d="M16.6667 0.899902C8.16675 0.899902 1.16675 7.7999 1.16675 16.3999C1.16675 23.1999 5.61675 28.9999 11.8167 31.0999C12.6167 31.2499 12.8667 30.7499 12.8667 30.3999C12.8667 30.0499 12.8667 29.0499 12.8167 27.6999C8.51675 28.6999 7.61675 25.5999 7.61675 25.5999C6.91675 23.8499 5.86675 23.3499 5.86675 23.3499C4.46675 22.3499 5.91675 22.3499 5.91675 22.3499C7.46675 22.3999 8.31675 23.9499 8.31675 23.9499C9.66675 26.3499 11.9667 25.6499 12.8167 25.1999C12.9667 24.1999 13.3667 23.4999 13.8167 23.0999C10.4167 22.7499 6.76675 21.3999 6.76675 15.4999C6.76675 13.7999 7.41675 12.4499 8.36675 11.3999C8.21675 11.0499 7.66675 9.4499 8.51675 7.2999C8.51675 7.2999 9.86675 6.8999 12.8167 8.8999C14.0667 8.5499 15.3667 8.3499 16.7167 8.3499C18.0667 8.3499 19.4167 8.4999 20.6167 8.8999C23.5667 6.9499 24.8667 7.2999 24.8667 7.2999C25.7167 9.3999 25.2167 11.0499 25.0167 11.3999C26.0167 12.4499 26.6167 13.8499 26.6167 15.4999C26.6167 21.3999 22.9667 22.7499 19.5667 23.0999C20.1167 23.5999 20.6167 24.5999 20.6167 25.9999C20.6167 28.0999 20.5667 29.7499 20.5667 30.2499C20.5667 30.6499 20.8667 31.0999 21.6167 30.9499C27.7167 28.8999 32.1667 23.1499 32.1667 16.2999C32.1167 7.7999 25.1667 0.899902 16.6667 0.899902Z"
            fill="#f3f4f6" />
    </g>
    <defs>
        <clipPath id="clip0_1172_6251">
            <rect width="32" height="32" fill="white" transform="translate(0.666748)" />
        </clipPath>
    </defs>
</svg>