<svg width="33" height="32" viewBox="0 0 33 32" fill="none" xmlns="http://www.w3.org/2000/svg">
    <path
        d="M27.6882 2.66675H4.93548C3.86022 2.66675 3 3.52696 3 4.60223V27.3979C3 28.4302 3.86022 29.3334 4.93548 29.3334H27.6022C28.6774 29.3334 29.5377 28.4732 29.5377 27.3979V4.55922C29.6237 3.52696 28.7635 2.66675 27.6882 2.66675ZM10.871 25.3334H6.95701V12.6452H10.871V25.3334ZM8.89249 10.8818C7.60217 10.8818 6.6129 9.84954 6.6129 8.60223C6.6129 7.35492 7.64518 6.32266 8.89249 6.32266C10.1398 6.32266 11.1721 7.35492 11.1721 8.60223C11.1721 9.84954 10.2258 10.8818 8.89249 10.8818ZM25.7097 25.3334H21.7957V19.1829C21.7957 17.7205 21.7527 15.785 19.7312 15.785C17.6667 15.785 17.3656 17.4194 17.3656 19.0538V25.3334H13.4516V12.6452H17.2796V14.4087H17.3226C17.8817 13.3764 19.129 12.3442 21.0645 12.3442C25.0645 12.3442 25.7957 14.9248 25.7957 18.4517V25.3334H25.7097Z"
        fill="#f3f4f6" />
</svg>