<svg width="32" height="32" viewBox="0 0 32 32" fill="none" xmlns="http://www.w3.org/2000/svg">
    <g clip-path="url(#clip0_1172_6249)">
        <path
            d="M27 4.95019C24.1 2.05019 20.15 0.450195 16.1 0.450195C7.6 0.450195 0.65 7.3502 0.65 15.8502C0.65 18.6002 1.35 21.2002 2.7 23.6002L0.5 31.5502L8.75 29.4502C11 30.6502 13.55 31.3502 16.15 31.3502C24.6 31.3002 31.5 24.4002 31.5 15.8502C31.5 11.7502 29.9 7.9002 27 4.95019ZM16.05 28.7002C13.8 28.7002 11.45 28.0502 9.5 26.8502L9 26.5502L4.15 27.8002L5.5 23.1002L5.2 22.6002C3.95 20.5502 3.25 18.1502 3.25 15.7502C3.25 8.7002 8.95 3.00019 16.05 3.00019C19.45 3.00019 22.65 4.35019 25.05 6.7502C27.45 9.1502 28.8 12.4002 28.8 15.8502C28.9 23.0002 23.1 28.7002 16.05 28.7002ZM23.1 19.1002C22.7 18.9002 20.85 17.9502 20.4 17.9002C20.05 17.7502 19.75 17.7002 19.55 18.1002C19.35 18.5002 18.55 19.3002 18.35 19.6002C18.15 19.8002 17.95 19.9002 17.5 19.6502C17.1 19.4502 15.9 19.1002 14.4 17.7002C13.25 16.7002 12.45 15.4502 12.3 15.0002C12.1 14.6002 12.25 14.4502 12.5 14.2002C12.7 14.0002 12.9 13.8002 13.05 13.5002C13.25 13.3002 13.25 13.1002 13.45 12.8502C13.65 12.6502 13.5 12.3502 13.4 12.1502C13.25 11.9502 12.55 10.0502 12.2 9.2502C11.9 8.4502 11.55 8.6002 11.35 8.6002C11.15 8.6002 10.85 8.6002 10.65 8.6002C10.45 8.6002 9.95 8.6502 9.65 9.1002C9.3 9.5002 8.3 10.4502 8.3 12.3502C8.3 14.2502 9.65 16.0002 9.9 16.3502C10.1 16.5502 12.65 20.5002 16.45 22.2002C17.35 22.6002 18.05 22.8502 18.65 23.0502C19.55 23.3502 20.4 23.2502 21.05 23.2002C21.8 23.1502 23.3 22.3002 23.65 21.3502C23.95 20.5002 23.95 19.6502 23.85 19.5002C23.75 19.4002 23.45 19.2502 23.1 19.1002Z"
            fill="#f3f4f6" />
    </g>
    <defs>
        <clipPath id="clip0_1172_6249">
            <rect width="32" height="32" fill="white" />
        </clipPath>
    </defs>
</svg>